<?xml version="1.0" standalone="no"?>
<!DOCTYPE svg PUBLIC "-//W3C//DTD SVG 20010904//EN"
 "http://www.w3.org/TR/2001/REC-SVG-20010904/DTD/svg10.dtd">
<svg version="1.0" xmlns="http://www.w3.org/2000/svg"
 width="300.000000pt" height="300.000000pt" viewBox="0 0 300.000000 300.000000"
 preserveAspectRatio="xMidYMid meet">
<metadata>
Created by potrace 1.10, written by Peter Selinger 2001-2011
</metadata>
<g transform="translate(0.000000,300.000000) scale(0.100000,-0.100000)"
fill="#000000" stroke="none">
<path d="M975 2257 c-11 -8 -49 -30 -85 -48 -74 -39 -67 -44 52 -37 l68 4 0
-30 c0 -31 -16 -466 -25 -684 l-5 -123 88 3 87 3 1 110 c1 61 4 155 7 210 4
55 8 194 9 309 l3 208 70 -5 c198 -17 285 -89 285 -235 0 -92 -23 -156 -76
-209 -43 -43 -43 -43 -16 -43 42 0 146 54 191 99 67 67 86 113 86 212 0 77 -3
90 -28 127 -34 53 -95 97 -161 119 -72 23 -521 31 -551 10z m174 -37 c22 0 23
-1 7 -24 -11 -18 -17 -60 -21 -158 -2 -73 -8 -209 -11 -303 -4 -93 -6 -196 -5
-228 1 -32 -1 -72 -4 -88 -6 -26 -11 -29 -45 -29 -34 0 -38 3 -41 28 -2 15 1
167 8 337 16 435 16 408 -8 433 -30 33 -15 46 45 38 28 -3 62 -6 75 -6z m372
-17 c70 -22 145 -94 155 -148 17 -93 -22 -198 -95 -254 l-34 -26 9 40 c5 22 9
81 9 131 0 82 -3 94 -28 132 -37 56 -97 98 -169 118 -32 9 -61 21 -65 27 -9
15 154 0 218 -20z"/>
<path d="M1276 1609 c-37 -28 -65 -56 -63 -62 4 -12 287 -12 375 0 l43 5 -2
-103 -2 -104 69 0 68 0 4 100 c2 55 4 100 5 101 1 1 71 5 156 9 139 6 153 5
148 -9 -7 -17 8 -22 18 -6 3 5 35 26 70 46 64 35 75 47 55 59 -6 4 -201 2
-433 -5 -381 -11 -422 -10 -433 4 -10 14 -20 9 -78 -35z m484 -23 c0 -7 -7
-19 -15 -26 -8 -7 -15 -27 -15 -45 0 -18 -3 -53 -6 -79 -6 -39 -10 -46 -29
-46 -21 0 -23 5 -27 74 -2 52 -8 80 -21 93 -23 26 -22 31 11 36 63 9 102 7
102 -7z"/>
<path d="M865 1235 c0 -61 1 -65 23 -65 12 0 31 9 42 20 16 16 18 24 10 40 -6
11 -8 25 -5 31 11 16 -15 39 -44 39 -25 0 -26 -2 -26 -65z m50 45 c4 -6 2 -17
-4 -24 -8 -10 -7 -17 4 -26 11 -9 12 -17 5 -31 -19 -34 -35 -12 -32 41 4 48
13 62 27 40z"/>
<path d="M980 1244 c5 -61 23 -83 56 -69 17 7 17 8 -6 14 -23 6 -25 12 -25 59
0 40 -4 52 -15 52 -12 0 -14 -10 -10 -56z"/>
<path d="M1058 1235 c5 -89 27 -89 27 0 0 51 -3 65 -15 65 -12 0 -14 -12 -12
-65z"/>
<path d="M1138 1289 c-26 -15 -22 -35 12 -59 33 -23 31 -43 -3 -38 -26 3 -35
-16 -10 -20 10 -1 29 7 42 19 l24 22 -22 18 c-12 10 -27 19 -33 21 -7 3 -9 12
-5 22 5 12 13 15 26 11 11 -3 22 -1 26 5 8 13 -34 13 -57 -1z"/>
<path d="M1225 1235 c0 -51 3 -65 14 -63 8 2 14 6 13 11 -1 4 -2 32 -2 62 0
37 -4 55 -12 55 -9 0 -13 -20 -13 -65z"/>
<path d="M1300 1275 c0 -16 -3 -47 -7 -69 -5 -30 -3 -38 8 -34 9 3 13 17 11
44 l-2 39 39 -43 c44 -48 51 -43 51 39 0 35 -4 49 -14 49 -11 0 -12 -8 -5 -41
6 -23 8 -43 6 -46 -5 -4 -46 38 -71 72 -15 19 -15 19 -16 -10z"/>
<path d="M1440 1235 l0 -65 30 0 c17 0 30 5 30 10 0 6 -9 10 -20 10 -28 0 -26
36 3 45 l22 8 -22 4 c-34 7 -30 41 5 46 22 3 20 4 -10 6 l-38 1 0 -65z"/>
<path d="M1552 1288 c-20 -20 -14 -48 13 -60 35 -16 32 -38 -5 -38 -16 0 -30
-4 -30 -10 0 -17 46 -11 63 8 24 26 21 34 -14 55 -26 15 -29 20 -18 33 6 8 18
13 25 10 7 -3 16 -1 19 4 9 14 -39 12 -53 -2z"/>
<path d="M1658 1289 c-26 -15 -22 -44 7 -57 35 -16 33 -44 -2 -40 -15 2 -28
-2 -30 -9 -7 -20 42 -16 60 5 24 26 21 41 -8 54 -31 14 -29 44 3 41 12 -2 22
2 22 7 0 13 -30 12 -52 -1z"/>
<path d="M1780 1290 c0 -6 11 -8 26 -4 l27 7 -5 -62 c-3 -45 -1 -61 8 -61 7 0
16 5 19 10 3 6 3 10 -2 10 -4 0 -6 22 -5 49 4 45 6 50 30 54 15 2 -1 5 -35 6
-37 0 -63 -3 -63 -9z"/>
<path d="M1931 1274 c-26 -33 -27 -58 -1 -84 24 -24 43 -25 74 -4 32 20 41 60
21 90 -22 33 -67 32 -94 -2z m75 -9 c22 -34 6 -75 -29 -75 -45 0 -64 52 -31
84 22 23 41 20 60 -9z"/>
<path d="M2065 1235 c0 -52 3 -65 14 -63 11 2 14 17 12 61 -2 47 0 57 14 57
24 0 29 -28 9 -53 l-19 -21 25 16 c15 9 25 25 25 39 0 21 -5 24 -40 27 l-40 3
0 -66z"/>
<path d="M974 1121 c-2 -2 -4 -22 -4 -43 0 -62 -20 -125 -49 -154 l-26 -27
175 6 c196 6 295 23 415 70 l80 32 3 45 3 45 -30 -37 c-17 -20 -52 -46 -77
-59 -44 -21 -53 -22 -217 -15 -95 4 -174 10 -177 12 -3 3 3 10 14 16 17 9 55
80 56 103 0 10 -156 15 -166 6z m96 -56 c0 -9 -7 -26 -15 -39 -14 -21 -14 -25
6 -49 l20 -27 -39 0 c-21 0 -41 2 -44 5 -5 5 7 80 17 113 6 18 55 15 55 -3z"/>
<path d="M1630 1125 c0 0 -1 -81 -1 -180 -1 -254 -20 -346 -81 -390 -22 -15
-16 -16 98 -13 l120 3 67 44 c37 24 66 46 63 48 -2 2 -21 0 -43 -6 -21 -6 -66
-11 -100 -11 l-62 0 24 36 c29 43 32 69 40 294 l5 175 -65 0 c-36 0 -65 0 -65
0z m78 -227 c-3 -169 -5 -186 -26 -227 -17 -31 -21 -46 -13 -54 17 -17 13 -37
-8 -37 -27 0 -36 17 -22 43 18 37 29 136 30 291 1 82 4 153 7 158 3 4 12 8 20
8 14 0 15 -24 12 -182z"/>
</g>
</svg>
